<svg preserveAspectRatio="none" width="100%" height="100%" overflow="visible" style="display: block;" viewBox="0 0 685.614 819" fill="none" xmlns="http://www.w3.org/2000/svg">
<path id="Vector 1" d="M17.8138 27.3724L5.21379 30.8483L0 46.4897V61.2621V84.7241L9.12414 264.166V426.228L3.04138 791.628H40.8414L55.6138 786.414H77.3379H100.366L106.448 780.331H114.703H134.255L140.772 786.414L506.607 803.359L533.545 808.138L549.186 819H566.565V747.31L574.386 719.938L605.234 531.372L646.945 307.614L666.497 175.531L681.269 119.483V101.669H685.614V94.2828L670.407 84.7241L646.945 69.5172L598.283 64.7379H585.248H573.517H540.497L326.297 46.4897L107.752 16.5103V3.47586L103.407 0L102.538 1.73793V13.9034L82.1172 9.12414L60.8276 13.9034L39.1034 19.1172L26.069 28.2414L24.331 23.4621L19.5517 19.1172L17.8138 20.8552V27.3724Z" fill="var(--fill-0, #D9D9D9)"/>
</svg>
