<svg preserveAspectRatio="none" width="100%" height="100%" overflow="visible" style="display: block;" viewBox="0 0 687.427 988.153" fill="none" xmlns="http://www.w3.org/2000/svg">
<path id="Union" d="M418.032 23.3268H420.517V37.4192L525.948 69.5969H527.668L521.698 95.6208H526.541V115.317H521.694L527.668 144.341H630.946V165.696H649.928L639.642 266.417H654.923L648.953 292.441H656.144L658.335 342.885H653.254L685.386 493.811H685.5L685.443 494.077L685.5 494.343H685.386L653.254 645.269H658.335L656.144 695.712H648.953L654.923 721.737H639.642L649.928 822.458H630.946V843.813H527.668L521.694 872.837H526.541V892.533H521.698L527.668 918.557H525.948L420.517 950.734V964.827H418.032L424.51 986.182H262.917L269.395 964.827H266.911V950.734L161.479 918.557H159.76L165.729 892.533H160.886V872.837H165.734L159.76 843.813H56.4818V822.458H37.4992L47.7857 721.737H32.5045L38.4744 695.712H31.2835L29.0925 645.269H34.1734L2.04085 494.343H1.92758L1.98421 494.077L1.92758 493.811H2.04085L34.1734 342.885H29.0925L31.2835 292.441H38.4744L32.5045 266.417H47.7857L37.4992 165.696H56.4818V144.341H159.76L165.734 115.317H160.886V95.6208H165.729L159.76 69.5969H161.479L266.911 37.4192V23.3268H269.395L262.917 1.97078H424.51L418.032 23.3268Z" stroke="var(--stroke-0, white)" stroke-width="3.94156" stroke-linejoin="bevel"/>
</svg>
